<svg clip-rule="evenodd" fill-rule="evenodd" height="512" stroke-linejoin="round" stroke-miterlimit="2" viewBox="0 0 128 128" width="512" xmlns="http://www.w3.org/2000/svg"><path d="m61.108 20.235c13.952 11.707 18.943 28.763 11.138 38.065-7.804 9.301-25.468 7.348-39.42-4.359-13.953-11.707-18.943-28.764-11.139-38.065 7.805-9.302 25.469-7.348 39.421 4.359z" fill="#bdbdbd"/><path d="m49.079 22.012c17.592 4.714 29.324 18.063 26.181 29.792-3.142 11.728-19.977 17.423-37.569 12.709-17.593-4.714-29.324-18.063-26.182-29.791 3.143-11.729 19.977-17.424 37.57-12.71z" fill="#eeefef"/><path d="m56.227 111.355c.929-3.465 3.014-5.922 4.653-5.483 1.64.44 2.217 3.61 1.289 7.075-.631 2.354-2.552 4.039-3.719 4.879-.236.163-.533.215-.81.141-.278-.075-.509-.267-.632-.527-.591-1.311-1.411-3.731-.781-6.085z" fill="#424243"/><path d="m74.636 60.12c10.396 2.785 17.373 10.507 13.466 25.087-3.906 14.58-17.227 30.532-27.622 27.746-10.396-2.785-13.956-23.26-10.049-37.84s13.81-17.779 24.205-14.993z" fill="#fbc02a"/><path d="m48.983 90.674c3.729 4.75 9.293 8.519 16.009 10.318 5.287 1.417 10.566 1.42 15.303.261-2.61 3.591-5.598 6.686-8.686 8.836-2.81.033-5.712-.318-8.617-1.097-4.351-1.166-8.219-3.158-11.416-5.708-1.447-3.68-2.316-8.066-2.593-12.61z" fill="#424243"/><path d="m54.772 65.722c2.542 7.922 9.536 14.683 18.946 17.204 5.142 1.378 10.292 1.299 14.912.032 0 0-.307 1.427-.528 2.249-.519 1.939-1.205 3.902-2.03 5.845-4.935 1.356-10.503 1.435-16.08-.06-9.315-2.496-16.416-8.78-19.47-16.213 1.044-3.759 2.493-6.746 4.25-9.057z" fill="#424243"/><path d="m87.059 45.727c8.839 5.102 12.517 15.303 8.209 22.765-4.308 7.461-14.981 9.376-23.82 4.273-8.838-5.103-12.517-15.303-8.209-22.765s14.981-9.376 23.82-4.273z" fill="#fbc02a"/><path d="m102.976 30.732-1.269-6.98c-.086-.47.058-.952.386-1.299s.802-.517 1.276-.458l11.945 1.493c.821.103 1.572-.48 1.674-1.302.103-.821-.481-1.572-1.302-1.674 0 0-7.205-.901-11.945-1.494-1.422-.177-2.843.332-3.828 1.373-.984 1.041-1.414 2.488-1.158 3.898.571 3.142 1.269 6.979 1.269 6.979.148.815.93 1.356 1.744 1.208.815-.148 1.356-.93 1.208-1.744z" fill="#767576"/><path d="m101.146 24.992c7.17 4.139 14.826 16.32 10.687 23.49s-18.517 6.63-25.687 2.49c-7.169-4.139-9.629-13.32-5.49-20.49s13.321-9.63 20.49-5.49z" fill="#fbc02a"/><path d="m91.748 19.277c.181.623.757 1.079 1.44 1.079l1.43-1.95c-.169-.541-.197-1.106-.094-1.647.103-.54.337-1.056.693-1.497.357-.441.811-.779 1.318-.993.507-.215 1.065-.306 1.63-.255 0 0 14.205 1.336 14.205 1.336.825.075 1.555-.533 1.63-1.358.075-.824-.534-1.554-1.358-1.629l-14.205-1.337c-1.064-.096-2.117.076-3.072.48-.954.404-1.811 1.04-2.482 1.871s-1.112 1.802-1.306 2.821c-.193 1.01-.142 2.067.171 3.079z" fill="#767576"/><path d="m97.841 25.509-2.267-7.255c-.412-1.317-1.815-2.052-3.132-1.64-1.317.411-2.052 1.815-1.641 3.132l2.267 7.254c.412 1.317 1.815 2.052 3.132 1.641 1.317-.412 2.052-1.815 1.641-3.132z" fill="#424243"/><path d="m71.539 34.632c-4.816-5.969-12.658-11.028-22.201-13.586-2.433-.651-4.852-1.108-7.224-1.381-.548-.063-1.044.331-1.107.879-.064.548.33 1.045.879 1.108 2.276.262 4.598.7 6.934 1.326 12.29 3.293 21.683 10.867 24.828 19.127-4.761.754-8.912 3.303-11.275 7.395-1.798 3.114-2.299 6.686-1.672 10.2-2.46 1.089-4.704 2.804-6.61 5.263-3.746.381-7.779.241-11.919-.482-.544-.095-1.062.269-1.157.813s.269 1.062.813 1.157c3.727.651 7.373.849 10.815.636-1.283 2.14-2.359 4.713-3.178 7.767-.6 2.238-1.028 4.612-1.285 7.04-.059.549.34 1.042.889 1.1.548.059 1.041-.34 1.1-.888.157-1.483.38-2.944.67-4.364 3.623 6.547 10.353 11.928 18.895 14.216.69.185 1.38.347 2.069.485.541.109 1.068-.241 1.177-.782s-.242-1.069-.783-1.178c-.648-.131-1.297-.283-1.946-.457-8.857-2.373-15.654-8.277-18.671-15.311.771-2.682 1.757-4.947 2.922-6.831 3.073 7.408 9.939 13.592 18.958 16.008 4.738 1.27 9.483 1.342 13.841.417-.052.212-.107.425-.165.639-.468 1.746-1.073 3.513-1.795 5.263-2.916.746-6.051 1.034-9.269.801-.55-.04-1.03.375-1.069.926-.04.55.374 1.029.925 1.069 2.893.209 5.723.024 8.404-.515-1.302 2.753-2.874 5.426-4.625 7.873-4.493 1.037-9.471.997-14.456-.339-1.692-.453-3.308-1.035-4.838-1.73-.502-.228-1.095-.005-1.324.498-.228.502-.005 1.095.498 1.324 1.627.738 3.347 1.358 5.147 1.84 4.492 1.204 8.979 1.417 13.153.788-1.564 1.915-3.235 3.635-4.959 5.075-.541.452-1.087.876-1.636 1.27-2.627.004-5.333-.339-8.041-1.065-4.118-1.103-7.79-2.97-10.844-5.359-1.036-2.706-1.754-5.792-2.151-9.032 1.533 1.564 3.276 2.988 5.202 4.231.463.299 1.083.166 1.382-.298s.166-1.083-.298-1.382c-2.564-1.656-4.784-3.655-6.58-5.887-.077-1.415-.095-2.845-.055-4.271.016-.552-.42-1.012-.971-1.028-.552-.015-1.013.42-1.028.972-.213 7.564 1.18 15.207 4.077 20.587.938 1.742 2.035 3.249 3.282 4.458-.801 3.735 1.487 7.506 1.487 7.506.278.453.861.609 1.328.356 0 0 3.076-1.679 4.569-4.614 3.772.093 7.791-1.762 11.559-4.909 6.598-5.51 12.463-14.951 14.858-23.89.509-1.901.839-3.689 1.004-5.368.055-.549-.347-1.039-.896-1.093-.55-.054-1.04.347-1.094.897-.072.727-.177 1.476-.316 2.248-4.301 1.07-9.049 1.081-13.789-.19-8.859-2.374-15.509-8.636-18.086-16.044 1.547-1.915 3.329-3.306 5.285-4.233 1.409 4.679 4.805 9.08 9.772 11.948 5.653 3.264 12.008 3.772 17.158 1.92.017.172.031.345.044.52.039.551.518.966 1.069.926.55-.039.965-.518.926-1.068-.029-.41-.07-.812-.121-1.206 2.53-1.29 4.66-3.219 6.11-5.731 1.249-2.164 1.874-4.541 1.932-6.968.013-.552-.424-1.011-.976-1.024-.551-.013-1.01.424-1.023.976-.05 2.095-.587 4.148-1.665 6.016-4.057 7.027-14.13 8.713-22.454 3.907s-11.9-14.372-7.843-21.399c2.839-4.917 8.65-7.215 14.717-6.506 1.291 3.192 3.616 5.992 6.824 7.844 2.343 1.353 5.426 2.34 8.685 2.824.586 1.159 1.031 2.359 1.324 3.573.13.536.67.867 1.207.737.536-.13.867-.67.737-1.207-.232-.96-.548-1.913-.945-2.847 2.232.162 4.485.081 6.585-.285 4.133-.719 7.667-2.545 9.46-5.651s1.608-7.08.164-11.018c-1.878-5.125-5.869-10.179-9.922-13.011l-.25-1.38c-.029-.156.019-.317.128-.433.11-.116.268-.172.425-.152l2.632.328c.548.069 1.048-.32 1.116-.868.069-.547-.32-1.048-.868-1.116l-2.631-.329c-.79-.099-1.58.184-2.127.763-.473.5-.715 1.169-.68 1.847-.327-.16-.657-.308-.989-.445.07-.773.396-1.512.943-2.09.766-.809 1.871-1.206 2.977-1.067l11.945 1.493c.274.034.468.284.434.558s-.284.468-.558.434c0 0-5.314-.664-5.314-.664-.548-.069-1.048.321-1.116.868-.069.548.32 1.048.868 1.116l5.314.665c1.369.171 2.619-.802 2.791-2.171.171-1.369-.802-2.62-2.171-2.791 0 0-7.205-.9-11.945-1.493-1.738-.217-3.475.406-4.678 1.678-.662.7-1.119 1.55-1.344 2.46l-1.315-4.208c-.178-.572-.49-1.065-.891-1.456.088-.217.207-.423.358-.61.252-.311.572-.549.93-.701.357-.151.751-.215 1.15-.179l14.205 1.336c1.374.125 2.591-.889 2.716-2.263s-.889-2.591-2.264-2.716c.004 0-4.638-.437-4.638-.437-.55-.051-1.038.353-1.09.902-.051.55.353 1.038.902 1.09l4.645.436c.275.025.478.269.453.544-.025.274-.268.477-.543.452 0 0-14.205-1.336-14.205-1.336-.731-.066-1.455.052-2.111.33-.656.277-1.245.714-1.706 1.286-.233.288-.426.602-.577.932-.344-.069-.702-.085-1.062-.045.2-.541.489-1.054.861-1.516.566-.701 1.289-1.237 2.094-1.578s1.693-.486 2.591-.405c0 0 5.56.523 5.56.523.55.052 1.038-.352 1.09-.902.051-.549-.353-1.037-.902-1.089l-5.567-.524c-1.23-.111-2.447.088-3.551.555s-2.095 1.203-2.871 2.164-1.286 2.084-1.511 3.262c-.047.251-.082.504-.104.759-.727.882-1.009 2.102-.643 3.274l.701 2.244c-2.883.57-5.6 1.928-7.804 3.98-.404.376-.427 1.009-.051 1.413s1.009.427 1.413.051c1.983-1.846 4.441-3.049 7.043-3.523l.965 3.089c.576 1.844 2.541 2.873 4.384 2.297 1.844-.576 2.873-2.541 2.297-4.385l-.089-.283c.66.256 1.309.566 1.94.931.271.156.542.324.813.503.014.01.027.019.041.027 3.856 2.567 7.698 7.388 9.485 12.264 1.223 3.335 1.5 6.7-.018 9.33s-4.572 4.072-8.07 4.681c-5.496.956-12.12-.172-16.251-2.557-6.691-3.863-8.987-12.432-5.124-19.124.276-.478.112-1.09-.366-1.366s-1.09-.112-1.366.366c-2.171 3.76-2.64 8.038-1.648 11.94-.617-.045-1.23-.061-1.837-.05-1.687-7.641-6.74-15.846-14.554-22.403-8.586-7.205-18.553-10.779-26.874-10.448-5.71.227-10.659 2.284-13.956 6.212-.325.388-.629.788-.913 1.2-.313.454-.198 1.077.256 1.39.455.314 1.078.199 1.391-.256.248-.36.514-.71.798-1.048 2.948-3.513 7.398-5.296 12.504-5.499 7.904-.315 17.352 3.137 25.508 9.981 4.857 4.075 8.609 8.811 11.074 13.631zm-14.45 77.86c-.066 1.625.477 3.153.899 4.078.725-.52 1.764-1.396 2.522-2.578-.097-.023-.193-.047-.289-.073-1.114-.299-2.16-.782-3.132-1.427zm-2.964-6.207c1.691 2.882 3.882 4.97 6.614 5.702 2.388.64 4.931.186 7.469-1.04-1.809-.171-3.641-.498-5.474-.989-3.135-.84-6.027-2.096-8.609-3.673zm-34.879-82.598c.135-.816.326-1.611.575-2.378.17-.525-.118-1.09-.643-1.26s-1.089.118-1.26.642c-.459 1.415-.743 2.911-.859 4.465-3.228 2.449-5.523 5.6-6.516 9.307-1.327 4.953-.173 10.187 2.916 14.995 4.502 7.005 13.147 13.12 23.973 16.021.533.143 1.082-.174 1.225-.707.142-.533-.174-1.082-.707-1.225-10.285-2.756-18.532-8.515-22.808-15.17-2.762-4.299-3.854-8.967-2.667-13.396 2.369-8.841 12.93-13.95 25.498-13.609.552.015 1.012-.42 1.027-.972s-.421-1.012-.973-1.027c-7.242-.197-13.82 1.367-18.781 4.314zm77.64 2.12c.247.79-.194 1.632-.984 1.879s-1.632-.194-1.879-.984c0 0-2.267-7.255-2.267-7.255-.247-.79.194-1.632.984-1.879s1.632.194 1.879.985c0 0 2.267 7.254 2.267 7.254z"/></svg>